# xmcd
#
# Track frame offsets:
#	150
#	14441
#	27703
#	39694
#	52730
#	64609
#	79795
#	93240
#	105277
#	119678
#	132555
#	143631
#	154497
#	167305
#	184480
#	198947
#
# Disc length: 2883 seconds
#
# Revision: 0
# Processed by: cddbd v1.5.2PL0 Copyright (c) Steve Scherf et al.
# Submitted via: EasyCDDAExtractor 11.0.2.1
#
DISCID=d80b4110
DTITLE=Bjøro Håland - On Tour
DYEAR=1900
DGENRE=
TTITLE0=What I didn't do
TTITLE1=Body language
TTITLE2=I'd fight the world
TTITLE3=If I could make a livin' lovin' you
TTITLE4=I'll take the blame
TTITLE5=She's not leaving she's gone
TTITLE6=New looks from an old lover
TTITLE7=Blue rendezvous
TTITLE8=Turning memories on the radio
TTITLE9=The lovin' machine
TTITLE10=The name of the game is cheatin'
TTITLE11=Is it really over
TTITLE12=Most of the time
TTITLE13=Life's too short no matter how long it lasts
TTITLE14=If you want to find love
TTITLE15=Back home again
EXTD=
EXTT0=
EXTT1=
EXTT2=
EXTT3=
EXTT4=
EXTT5=
EXTT6=
EXTT7=
EXTT8=
EXTT9=
EXTT10=
EXTT11=
EXTT12=
EXTT13=
EXTT14=
EXTT15=
PLAYORDER=
